<svg width="40" height="40" viewBox="0 0 40 40" fill="none" xmlns="http://www.w3.org/2000/svg">
<path d="M28.172 12.8791C27.112 11.8163 25.7068 11.1676 24.2103 11.0502C22.7139 10.9329 21.2248 11.3545 20.012 12.2391C18.7397 11.2927 17.156 10.8636 15.5799 11.0381C14.0038 11.2126 12.5524 11.9778 11.518 13.1797C10.4835 14.3815 9.94282 15.9306 10.0048 17.5151C10.0668 19.0996 10.7268 20.6017 11.852 21.7191L18.062 27.9391C18.582 28.4509 19.2824 28.7377 20.012 28.7377C20.7416 28.7377 21.442 28.4509 21.962 27.9391L28.172 21.7191C29.3396 20.5443 29.9949 18.9553 29.9949 17.2991C29.9949 15.6428 29.3396 14.0538 28.172 12.8791ZM26.762 20.3391L20.552 26.5491C20.4813 26.6204 20.3972 26.6771 20.3045 26.7157C20.2118 26.7544 20.1124 26.7743 20.012 26.7743C19.9116 26.7743 19.8121 26.7544 19.7195 26.7157C19.6268 26.6771 19.5427 26.6204 19.472 26.5491L13.262 20.3091C12.4778 19.5074 12.0386 18.4305 12.0386 17.3091C12.0386 16.1876 12.4778 15.1107 13.262 14.3091C14.0611 13.5201 15.139 13.0776 16.262 13.0776C17.385 13.0776 18.4628 13.5201 19.262 14.3091C19.355 14.4028 19.4656 14.4772 19.5874 14.528C19.7093 14.5787 19.84 14.6049 19.972 14.6049C20.104 14.6049 20.2347 14.5787 20.3566 14.528C20.4784 14.4772 20.589 14.4028 20.682 14.3091C21.4811 13.5201 22.559 13.0776 23.682 13.0776C24.805 13.0776 25.8828 13.5201 26.682 14.3091C27.477 15.1002 27.9306 16.1713 27.9455 17.2928C27.9605 18.4143 27.5356 19.497 26.762 20.3091V20.3391Z" fill="white"/>
<rect x="0.5" y="0.5" width="39" height="39" rx="19.5" stroke="white"/>
</svg>
