<svg width="40" height="40" viewBox="0 0 40 40" fill="none" xmlns="http://www.w3.org/2000/svg">
<path d="M22.0003 25.9999C22.2655 25.9999 22.5199 25.8945 22.7074 25.707C22.8949 25.5195 23.0003 25.2651 23.0003 24.9999V22.9999C23.0003 22.7347 22.8949 22.4803 22.7074 22.2928C22.5199 22.1053 22.2655 21.9999 22.0003 21.9999C21.7351 21.9999 21.4807 22.1053 21.2932 22.2928C21.1056 22.4803 21.0003 22.7347 21.0003 22.9999V24.9999C21.0003 25.2651 21.1056 25.5195 21.2932 25.707C21.4807 25.8945 21.7351 25.9999 22.0003 25.9999ZM18.0003 25.9999C18.2655 25.9999 18.5199 25.8945 18.7074 25.707C18.8949 25.5195 19.0003 25.2651 19.0003 24.9999V22.9999C19.0003 22.7347 18.8949 22.4803 18.7074 22.2928C18.5199 22.1053 18.2655 21.9999 18.0003 21.9999C17.7351 21.9999 17.4807 22.1053 17.2932 22.2928C17.1056 22.4803 17.0003 22.7347 17.0003 22.9999V24.9999C17.0003 25.2651 17.1056 25.5195 17.2932 25.707C17.4807 25.8945 17.7351 25.9999 18.0003 25.9999ZM27.0003 13.9999H25.6203L23.8903 10.5499C23.8374 10.423 23.7589 10.3083 23.6598 10.213C23.5606 10.1178 23.4428 10.044 23.3138 9.99635C23.1848 9.94867 23.0474 9.92811 22.9101 9.93595C22.7728 9.94379 22.6386 9.97986 22.5159 10.0419C22.3932 10.104 22.2846 10.1907 22.1969 10.2966C22.1092 10.4025 22.0443 10.5254 22.0062 10.6575C21.9681 10.7896 21.9577 10.9282 21.9756 11.0646C21.9935 11.2009 22.0394 11.3321 22.1103 11.4499L23.3803 13.9999H16.6203L17.8903 11.4499C17.9873 11.2168 17.9926 10.9556 17.9051 10.7188C17.8176 10.482 17.6437 10.287 17.4183 10.1731C17.193 10.0591 16.9329 10.0347 16.6903 10.1046C16.4477 10.1745 16.2405 10.3336 16.1103 10.5499L14.3803 13.9999H13.0003C12.2935 14.0107 11.6132 14.2707 11.0793 14.734C10.5455 15.1974 10.1925 15.8344 10.0825 16.5327C9.97245 17.231 10.1126 17.9457 10.4781 18.5508C10.8436 19.1558 11.411 19.6124 12.0803 19.8399L12.8203 27.2999C12.8949 28.0425 13.2436 28.7306 13.7984 29.2298C14.3531 29.7291 15.074 30.0036 15.8203 29.9999H24.2003C24.9466 30.0036 25.6675 29.7291 26.2222 29.2298C26.7769 28.7306 27.1257 28.0425 27.2003 27.2999L27.9403 19.8399C28.611 19.6117 29.1793 19.1535 29.5446 18.5464C29.9098 17.9393 30.0484 17.2225 29.9359 16.523C29.8233 15.8236 29.4667 15.1865 28.9294 14.7247C28.3921 14.2629 27.7087 14.0061 27.0003 13.9999ZM25.1903 27.0999C25.1654 27.3474 25.0492 27.5768 24.8643 27.7432C24.6793 27.9096 24.439 28.0012 24.1903 27.9999H15.8103C15.5615 28.0012 15.3212 27.9096 15.1363 27.7432C14.9514 27.5768 14.8352 27.3474 14.8103 27.0999L14.1003 19.9999H25.9003L25.1903 27.0999ZM27.0003 17.9999H13.0003C12.7351 17.9999 12.4807 17.8945 12.2932 17.707C12.1056 17.5195 12.0003 17.2651 12.0003 16.9999C12.0003 16.7347 12.1056 16.4803 12.2932 16.2928C12.4807 16.1053 12.7351 15.9999 13.0003 15.9999H27.0003C27.2655 15.9999 27.5199 16.1053 27.7074 16.2928C27.8949 16.4803 28.0003 16.7347 28.0003 16.9999C28.0003 17.2651 27.8949 17.5195 27.7074 17.707C27.5199 17.8945 27.2655 17.9999 27.0003 17.9999Z" fill="white"/>
<rect x="0.5" y="0.5" width="39" height="39" rx="19.5" stroke="white"/>
</svg>
