<svg width="40" height="40" viewBox="0 0 40 40" fill="none" xmlns="http://www.w3.org/2000/svg">
<path d="M29.7099 28.2899L25.9999 24.6099C27.44 22.8143 28.1374 20.5352 27.9487 18.2412C27.76 15.9472 26.6996 13.8127 24.9854 12.2765C23.2713 10.7404 21.0337 9.91941 18.7328 9.98237C16.4319 10.0453 14.2426 10.9875 12.615 12.615C10.9875 14.2426 10.0453 16.4319 9.98237 18.7328C9.91941 21.0337 10.7404 23.2713 12.2765 24.9854C13.8127 26.6996 15.9472 27.76 18.2412 27.9487C20.5352 28.1374 22.8143 27.44 24.6099 25.9999L28.2899 29.6799C28.3829 29.7736 28.4935 29.848 28.6153 29.8988C28.7372 29.9496 28.8679 29.9757 28.9999 29.9757C29.1319 29.9757 29.2626 29.9496 29.3845 29.8988C29.5063 29.848 29.6169 29.7736 29.7099 29.6799C29.8901 29.4934 29.9909 29.2442 29.9909 28.9849C29.9909 28.7256 29.8901 28.4764 29.7099 28.2899ZM18.9999 25.9999C17.6154 25.9999 16.2621 25.5894 15.1109 24.8202C13.9598 24.051 13.0626 22.9578 12.5327 21.6787C12.0029 20.3996 11.8643 18.9921 12.1344 17.6343C12.4045 16.2764 13.0712 15.0291 14.0502 14.0502C15.0291 13.0712 16.2764 12.4045 17.6343 12.1344C18.9921 11.8643 20.3996 12.0029 21.6787 12.5327C22.9578 13.0626 24.051 13.9598 24.8202 15.1109C25.5894 16.2621 25.9999 17.6154 25.9999 18.9999C25.9999 20.8564 25.2624 22.6369 23.9497 23.9497C22.6369 25.2624 20.8564 25.9999 18.9999 25.9999Z" fill="white"/>
<rect x="0.5" y="0.5" width="39" height="39" rx="19.5" stroke="white"/>
</svg>
