<svg width="30" height="28" viewBox="0 0 30 28" fill="none" xmlns="http://www.w3.org/2000/svg">
<path fill-rule="evenodd" clip-rule="evenodd" d="M21.9385 0.412659L18.4076 4.08075H11.5924L8.06147 0.412659C7.93563 0.281839 7.7862 0.178059 7.62172 0.107252C7.45723 0.0364454 7.28092 0 7.10287 0C6.92481 0 6.7485 0.0364454 6.58401 0.107252C6.41953 0.178059 6.2701 0.281839 6.14426 0.412659L0.396702 6.38262C0.142694 6.64648 0 7.00429 0 7.37738C0 7.75047 0.142694 8.10829 0.396702 8.37214L5.51558 13.6878V26.593C5.51558 26.9661 5.65833 27.324 5.91243 27.5879C6.16652 27.8518 6.51115 28 6.8705 28H23.1295C23.4889 28 23.8335 27.8518 24.0876 27.5879C24.3417 27.324 24.4844 26.9661 24.4844 26.593V13.6878L29.6033 8.37214C29.8573 8.10829 30 7.75047 30 7.37738C30 7.00429 29.8573 6.64648 29.6033 6.38262L23.8557 0.412659C23.7299 0.281839 23.5805 0.178059 23.416 0.107252C23.2515 0.0364454 23.0752 0 22.8971 0C22.7191 0 22.5428 0.0364454 22.3783 0.107252C22.2138 0.178059 22.0644 0.281839 21.9385 0.412659ZM14.1751 19.9818L14.9256 20.665L15.6761 19.9818C18.3416 17.5647 20.1014 15.9653 20.1014 14.014C20.1014 12.4147 18.8489 11.1673 17.2547 11.1673C16.3541 11.1673 15.4897 11.5866 14.9256 12.2439C14.3614 11.5866 13.4971 11.1673 12.5965 11.1673C11.0023 11.1673 9.74977 12.4147 9.74977 14.014C9.74977 15.9653 11.5095 17.5647 14.1751 19.9818Z" fill="white"/>
</svg>
