<svg width="125" height="38" viewBox="0 0 125 38" fill="none" xmlns="http://www.w3.org/2000/svg">
<path fill-rule="evenodd" clip-rule="evenodd" d="M27.4436 0H10.5564C4.72628 0 0 4.72628 0 10.5564V27.4436C0 33.2737 4.72628 38 10.5564 38H27.4436C28.569 38 29.6533 37.8239 30.6705 37.4977L15.3125 22.1397L25.0092 12.443C25.3843 12.0679 25.893 11.8572 26.4234 11.8572H27.8693C29.6511 11.8572 30.5435 14.0115 29.2835 15.2714L22.4152 22.1397L34.8819 34.6064C34.9372 34.6616 34.9879 34.7196 35.0342 34.7799C36.8703 32.8805 38 30.294 38 27.4436V10.5564C38 4.72628 33.2737 0 27.4436 0ZM15.3125 22.1397L15.311 22.1411C15.3098 22.1424 15.3076 22.1415 15.3076 22.1397C15.3076 22.1379 15.3098 22.137 15.311 22.1383L15.3125 22.1397ZM4.20355 22.1411C4.2023 22.1424 4.20015 22.1415 4.20015 22.1397C4.20015 22.1379 4.2023 22.137 4.20355 22.1383L4.20496 22.1397L4.20355 22.1411ZM4.20496 22.1397L18.6817 7.66293C19.0568 7.28786 19.5655 7.07715 20.0959 7.07715H21.5419C23.3237 7.07715 24.216 9.23143 22.9561 10.4914L11.3077 22.1397L20.1316 30.9662C20.91 31.7448 20.3586 33.0758 19.2576 33.0758H15.9664C15.4359 33.0758 14.9271 32.865 14.552 32.4898L4.20496 22.1397ZM45.7288 11.2712H50.7443V19.8015L55.647 15.4447H61.2033L55.4893 20.3674L61.8986 26.3431H56.0076L50.7443 21.3412V26.3462H45.7288V11.2712ZM77.489 17.4776V14.8914H72.2707C71.408 14.8914 70.6193 15.0431 69.9046 15.3466C69.19 15.6502 68.6846 15.9474 68.3884 16.2382C68.089 16.526 67.8444 16.8168 67.6448 17.1077V15.138H62.9577V26.2988H67.6866V20.5319C67.6866 19.7699 67.9055 19.1312 68.3434 18.6127C68.7812 18.0973 69.6471 17.6009 70.2233 17.5345C70.7996 17.465 77.489 17.4776 77.489 17.4776ZM95.1525 23.4817V26.5233H91.2959C90.2593 26.5233 89.6541 26.0111 89.4867 24.9804C89.1326 25.4104 88.5274 25.8088 87.6776 26.1787C86.8245 26.5486 85.6624 26.732 84.1848 26.732H83.908C82.1052 26.732 80.7661 26.3842 79.8937 25.6918C79.0213 24.9994 78.5835 24.1236 78.5835 23.0675V22.9221C78.5835 21.8946 78.9569 21.1168 79.7005 20.5888C80.4474 20.0608 81.6771 19.7193 83.3961 19.5675L88.6369 19.0869C89.1198 19.03 89.3612 18.8372 89.3612 18.502C89.3612 18.3218 89.3161 18.1764 89.2228 18.0657C89.1294 17.9551 88.8493 17.8476 88.3826 17.7432C87.9126 17.6389 87.2462 17.5883 86.3803 17.5883L78.5835 17.6009V15.002H86.8696C88.1476 15.002 89.2421 15.0779 90.1499 15.2297C91.0577 15.3814 91.7562 15.5711 92.2391 15.7924C92.722 16.0138 93.0986 16.3015 93.369 16.6556C93.6395 17.0097 93.8036 17.3259 93.8584 17.6041C93.9131 17.8823 93.942 18.2206 93.942 18.6253V22.9158C93.942 23.2889 94.1416 23.4786 94.5376 23.4786H95.1557L95.1525 23.4817ZM89.358 21.1895L84.8222 21.8756C84.1816 21.9736 83.7373 22.0937 83.4798 22.2392C83.2255 22.3846 83.0967 22.6091 83.0967 22.9158V22.9379C83.0967 23.2857 83.2609 23.5829 83.586 23.8327C83.9112 24.0825 84.4455 24.2089 85.1827 24.2089C86.4028 24.2089 87.404 23.937 88.1862 23.3964C88.9685 22.8557 89.358 22.236 89.358 21.5436V21.1895ZM101.7 15.3941H96.7298H96.7266V26.2957H101.742V21.1484C101.742 20.2821 102.054 19.5739 102.676 19.0206C103.297 18.4673 104.14 18.189 105.206 18.189C107.05 18.189 107.971 19.0964 107.971 20.9049V26.2957H113.032V21.1484C113.032 20.2821 113.344 19.5739 113.965 19.0206C114.586 18.4673 115.43 18.189 116.495 18.189C118.324 18.189 119.238 19.0964 119.238 20.9049V26.2925H124.299V19.4031C124.299 18.2428 123.835 17.2437 122.905 16.4058C121.978 15.568 120.584 15.1506 118.723 15.1506H118.543C116.083 15.1506 114.052 15.8746 112.449 17.3195C111.564 15.8746 109.954 15.1506 107.614 15.1506H107.456C105.193 15.1506 103.274 15.8588 101.7 17.2784V15.3941Z" fill="white"/>
</svg>
