<svg width="322" height="65" viewBox="0 0 346 65" fill="none" xmlns="http://www.w3.org/2000/svg">
<path d="M345.426 64.0591C345.698 64.012 345.88 63.7533 345.833 63.4812L345.066 59.047C345.019 58.7749 344.761 58.5925 344.489 58.6395C344.216 58.6866 344.034 58.9453 344.081 59.2174L344.763 63.1589L340.821 63.8404C340.549 63.8875 340.367 64.1462 340.414 64.4183C340.461 64.6904 340.719 64.8728 340.991 64.8258L345.426 64.0591ZM1.49904 54.6504C52.3869 12.9413 192.399 -43.6718 345.052 63.975L345.629 63.1578C192.527 -44.8048 52.0181 11.9506 0.865134 53.877L1.49904 54.6504Z" fill="#2AA5BE"/>
</svg>
