<svg width="16" height="16" viewBox="0 0 16 16" fill="none" xmlns="http://www.w3.org/2000/svg">
<path d="M14.2 6.71995C14.0127 6.49505 13.7783 6.314 13.5134 6.1896C13.2484 6.06519 12.9594 6.00045 12.6667 5.99995H9.62671L10 5.04662C10.1553 4.6292 10.207 4.18035 10.1508 3.73856C10.0945 3.29677 9.93183 2.87523 9.67683 2.5101C9.42183 2.14497 9.08206 1.84715 8.68667 1.64218C8.29128 1.43721 7.85206 1.33121 7.40671 1.33328C7.27847 1.33355 7.15302 1.3708 7.04542 1.44056C6.93782 1.51033 6.85262 1.60965 6.80004 1.72661L4.90004 5.99995H3.33337C2.80294 5.99995 2.29423 6.21066 1.91916 6.58573C1.54409 6.96081 1.33337 7.46952 1.33337 7.99995V12.6666C1.33337 13.197 1.54409 13.7058 1.91916 14.0808C2.29423 14.4559 2.80294 14.6666 3.33337 14.6666H11.82C12.2879 14.6665 12.7409 14.5023 13.1003 14.2026C13.4596 13.903 13.7025 13.4868 13.7867 13.0266L14.6334 8.35995C14.6857 8.07154 14.6741 7.77514 14.5992 7.49173C14.5243 7.20833 14.388 6.94485 14.2 6.71995ZM4.66671 13.3333H3.33337C3.15656 13.3333 2.98699 13.263 2.86197 13.138C2.73695 13.013 2.66671 12.8434 2.66671 12.6666V7.99995C2.66671 7.82314 2.73695 7.65357 2.86197 7.52854C2.98699 7.40352 3.15656 7.33328 3.33337 7.33328H4.66671V13.3333ZM13.3334 8.11995L12.4867 12.7866C12.4583 12.9419 12.3757 13.0821 12.2536 13.1822C12.1315 13.2823 11.9779 13.3359 11.82 13.3333H6.00004V6.80662L7.81337 2.72662C8.00003 2.78103 8.17338 2.87355 8.32248 2.99834C8.47158 3.12312 8.59319 3.27746 8.67964 3.45161C8.76609 3.62576 8.8155 3.81594 8.82474 4.01015C8.83399 4.20436 8.80288 4.39837 8.73337 4.57995L8.38004 5.53328C8.30475 5.73479 8.27933 5.95151 8.30596 6.16497C8.33258 6.37843 8.41045 6.58227 8.53293 6.75911C8.65541 6.93595 8.81885 7.08053 9.00931 7.18051C9.19977 7.28049 9.4116 7.33291 9.62671 7.33328H12.6667C12.7646 7.33312 12.8614 7.35455 12.9501 7.39603C13.0389 7.43751 13.1174 7.49803 13.18 7.57328C13.2443 7.6475 13.2913 7.73498 13.3178 7.82948C13.3443 7.92397 13.3496 8.02316 13.3334 8.11995Z" fill="#252525"/>
</svg>
