<svg width="16" height="16" viewBox="0 0 16 16" fill="none" xmlns="http://www.w3.org/2000/svg">
<path d="M2.66671 13.3333C2.30004 13.3333 1.98604 13.2026 1.72471 12.9413C1.46338 12.68 1.33293 12.3662 1.33338 12V3.99996C1.33338 3.63329 1.46404 3.31929 1.72538 3.05796C1.98671 2.79663 2.30049 2.66618 2.66671 2.66663H13.3334C13.7 2.66663 14.014 2.79729 14.2754 3.05863C14.5367 3.31996 14.6672 3.63374 14.6667 3.99996V12C14.6667 12.3666 14.536 12.6806 14.2747 12.942C14.0134 13.2033 13.6996 13.3337 13.3334 13.3333H2.66671ZM13.3334 5.33329L8.35004 8.44996C8.29449 8.48329 8.23604 8.50841 8.17471 8.52529C8.11338 8.54218 8.05515 8.55041 8.00004 8.54996C7.94449 8.54996 7.88604 8.54174 7.82471 8.52529C7.76338 8.50885 7.70515 8.48374 7.65004 8.44996L2.66671 5.33329V12H13.3334V5.33329ZM8.00004 7.33329L13.3334 3.99996H2.66671L8.00004 7.33329ZM2.66671 5.49996V4.51663V4.53329V4.52529V5.49996Z" fill="#252525"/>
</svg>
