<svg width="16" height="16" viewBox="0 0 16 16" fill="none" xmlns="http://www.w3.org/2000/svg">
<path fill-rule="evenodd" clip-rule="evenodd" d="M6.38985 2.12584C6.56369 2.25114 6.66671 2.45238 6.66671 2.66667C6.66671 3.02029 6.80718 3.35943 7.05723 3.60948C7.30728 3.85953 7.64642 4 8.00004 4C8.35366 4 8.6928 3.85953 8.94285 3.60948C9.1929 3.35943 9.33337 3.02029 9.33337 2.66667C9.33337 2.45238 9.43639 2.25114 9.61023 2.12584C9.78408 2.00054 10.0076 1.96645 10.2109 2.03422L14.2109 3.36755C14.4831 3.45829 14.6667 3.71305 14.6667 4V7.33334C14.6667 7.70153 14.3682 8 14 8H12.6667V12.6667C12.6667 13.0203 12.5262 13.3594 12.2762 13.6095C12.0261 13.8595 11.687 14 11.3334 14H4.66671C4.31309 14 3.97395 13.8595 3.7239 13.6095C3.47385 13.3594 3.33337 13.0203 3.33337 12.6667V8H2.00004C1.63185 8 1.33337 7.70153 1.33337 7.33334V4C1.33337 3.71305 1.51699 3.45829 1.78922 3.36755L5.78922 2.03422C5.99252 1.96645 6.216 2.00054 6.38985 2.12584ZM2.66671 4.48051V6.66667H4.00004C4.36823 6.66667 4.66671 6.96515 4.66671 7.33334V12.6667H11.3334V7.33334C11.3334 6.96515 11.6319 6.66667 12 6.66667H13.3334V4.48051L10.5188 3.54233C10.3879 3.91893 10.1729 4.26501 9.88566 4.55229C9.38556 5.05239 8.70728 5.33334 8.00004 5.33334C7.2928 5.33334 6.61452 5.05239 6.11442 4.55229C5.82714 4.26501 5.61217 3.91893 5.48124 3.54233L2.66671 4.48051Z" fill="#252525"/>
</svg>
