<svg width="16" height="16" viewBox="0 0 16 16" fill="none" xmlns="http://www.w3.org/2000/svg">
<path d="M14.6666 5.2133C14.6699 5.17114 14.6699 5.1288 14.6666 5.08663L13.3333 1.7533C13.2812 1.62154 13.1885 1.50979 13.0687 1.43427C12.9488 1.35875 12.808 1.32338 12.6666 1.3333H3.33331C3.19979 1.33317 3.06931 1.37314 2.95877 1.44802C2.84823 1.52291 2.76272 1.62926 2.71331 1.7533L1.37998 5.08663C1.37677 5.1288 1.37677 5.17114 1.37998 5.2133C1.35783 5.25041 1.34205 5.29097 1.33331 5.3333C1.34073 5.79413 1.46746 6.24517 1.70114 6.64242C1.93482 7.03967 2.26747 7.36958 2.66665 7.59997V14C2.66665 14.1768 2.73688 14.3463 2.86191 14.4714C2.98693 14.5964 3.1565 14.6666 3.33331 14.6666H12.6666C12.8435 14.6666 13.013 14.5964 13.1381 14.4714C13.2631 14.3463 13.3333 14.1768 13.3333 14V7.62663C13.7363 7.39395 14.0715 7.05985 14.3054 6.65753C14.5393 6.2552 14.6638 5.79867 14.6666 5.3333C14.6729 5.29354 14.6729 5.25306 14.6666 5.2133ZM8.66665 13.3333H7.33331V10.6666H8.66665V13.3333ZM12 13.3333H9.99998V9.99997C9.99998 9.82316 9.92974 9.65359 9.80472 9.52856C9.67969 9.40354 9.51012 9.3333 9.33331 9.3333H6.66665C6.48984 9.3333 6.32027 9.40354 6.19524 9.52856C6.07022 9.65359 5.99998 9.82316 5.99998 9.99997V13.3333H3.99998V7.99997C4.37963 7.99783 4.75444 7.91464 5.09935 7.75598C5.44426 7.59733 5.75131 7.36685 5.99998 7.07997C6.25022 7.36372 6.55798 7.59097 6.90281 7.74663C7.24764 7.9023 7.62164 7.9828 7.99998 7.9828C8.37831 7.9828 8.75232 7.9023 9.09715 7.74663C9.44198 7.59097 9.74973 7.36372 9.99998 7.07997C10.2486 7.36685 10.5557 7.59733 10.9006 7.75598C11.2455 7.91464 11.6203 7.99783 12 7.99997V13.3333ZM12 6.66663C11.6464 6.66663 11.3072 6.52616 11.0572 6.27611C10.8071 6.02606 10.6666 5.68692 10.6666 5.3333C10.6666 5.15649 10.5964 4.98692 10.4714 4.8619C10.3464 4.73687 10.1768 4.66663 9.99998 4.66663C9.82317 4.66663 9.6536 4.73687 9.52858 4.8619C9.40355 4.98692 9.33331 5.15649 9.33331 5.3333C9.33331 5.68692 9.19284 6.02606 8.94279 6.27611C8.69274 6.52616 8.3536 6.66663 7.99998 6.66663C7.64636 6.66663 7.30722 6.52616 7.05717 6.27611C6.80712 6.02606 6.66665 5.68692 6.66665 5.3333C6.66665 5.15649 6.59641 4.98692 6.47138 4.8619C6.34636 4.73687 6.17679 4.66663 5.99998 4.66663C5.82317 4.66663 5.6536 4.73687 5.52858 4.8619C5.40355 4.98692 5.33331 5.15649 5.33331 5.3333C5.33988 5.5084 5.31189 5.68307 5.25095 5.84735C5.19001 6.01163 5.09731 6.1623 4.97814 6.29075C4.85898 6.41921 4.71567 6.52293 4.55642 6.59601C4.39716 6.66908 4.22508 6.71007 4.04998 6.71663C3.69636 6.7299 3.35195 6.60214 3.09253 6.36147C2.96407 6.2423 2.86035 6.09899 2.78727 5.93974C2.7142 5.78048 2.67321 5.6084 2.66665 5.4333L3.78665 2.66663H12.2133L13.3333 5.4333C13.308 5.76931 13.1565 6.08329 12.9091 6.31211C12.6618 6.54092 12.3369 6.66758 12 6.66663Z" fill="#252525"/>
</svg>
